<svg width="93" height="94" viewBox="0 0 93 94" fill="none" xmlns="http://www.w3.org/2000/svg">
<path fill-rule="evenodd" clip-rule="evenodd" d="M17.4868 0.811024C14.2801 1.18064 11.5196 2.22025 10.3703 3.49103C9.52745 4.42328 9.29608 5.3371 9.43773 7.17486C9.60217 9.30668 10.6212 16.3664 10.8178 16.7365C11.1815 17.4208 12.4773 17.3863 13.0042 16.6783C13.3472 16.2174 13.347 16.1694 12.9771 12.9244C12.7711 11.1166 12.6024 9.52718 12.6024 9.39235C12.6024 9.20492 12.8816 9.24848 13.7892 9.57779C15.0805 10.0459 17.662 10.5484 18.7769 10.5484H19.4768V26.7245V42.9007H17.8913H16.3061L15.1917 32.854C14.2811 24.6442 14.02 22.7439 13.764 22.4614C13.3299 21.9821 12.2229 21.9975 11.7775 22.4891C11.3817 22.9261 11.3826 23.3462 11.7878 26.8106C11.9425 28.1332 12.0467 29.237 12.0192 29.2634C11.9917 29.2899 9.73676 30.1501 7.00801 31.1752C4.27927 32.2002 1.79818 33.206 1.49462 33.4104C-0.280042 34.6053 -0.516302 37.1268 1.01161 38.563C1.56716 39.0849 2.65258 39.5565 7.22003 41.2598L12.7553 43.3242L12.2535 43.7925C10.6905 45.2512 10.5709 47.9068 11.9935 49.5675C12.3316 49.962 12.8919 50.3784 13.2385 50.4927C13.5851 50.6071 13.8688 50.7658 13.8688 50.8455C13.8688 50.9254 12.6884 59.2865 11.2457 69.426C9.80297 79.5655 8.62258 88.1192 8.62258 88.4344C8.62258 90.7211 11.8595 92.4125 17.2799 92.9577C24.9059 93.725 31.6986 91.9753 32.2377 89.1049C32.3061 88.7404 31.7943 83.8579 30.9802 77.1111C30.2252 70.8526 29.6074 65.646 29.6074 65.541C29.6074 65.4351 30.5609 65.6605 31.7447 66.0462C36.1917 67.4952 40.3425 68.1037 45.7078 68.0932C52.3308 68.0802 57.8225 67.0068 64.0617 64.5054C65.4342 63.9552 66.5876 63.505 66.6249 63.505C66.6622 63.505 66.6926 65.7277 66.6926 68.4444V73.3839L65.769 73.816C65.2594 74.0544 64.4964 74.636 64.0671 75.1132C62.7959 76.5258 62.7127 76.9741 62.7127 82.4114V87.1557L63.1894 87.5301C63.642 87.886 63.8884 87.9048 68.0819 87.9048H72.4979L72.9525 87.4506L73.4072 86.9964L73.3514 82.0736C73.2977 77.3422 73.2794 77.1206 72.8807 76.3745C72.2443 75.1837 71.3045 74.2516 70.3092 73.8238L69.4061 73.4355V67.7574V62.0795L71.2571 61.0415C72.2751 60.4706 73.2926 59.819 73.5184 59.5936L73.9287 59.1837V52.4042C73.9287 46.1318 73.9524 45.612 74.2453 45.4565C74.4193 45.364 78.1844 43.9286 82.6121 42.2665C87.0397 40.6044 90.9269 39.0463 91.2504 38.8041C93.3067 37.2638 92.7598 34.0696 90.2565 32.9991C89.7832 32.7967 85.2442 31.0684 80.1699 29.1584C75.0955 27.2483 65.8966 23.783 59.7278 21.4574C53.559 19.132 48.0031 17.1354 47.3811 17.0205C45.6672 16.7042 44.7027 16.9637 37.5671 19.6618C33.1815 21.3201 31.1282 22.0172 31.092 21.8599C31.0627 21.7334 31.5309 18.1526 32.1322 13.9027C32.7336 9.65279 33.2242 5.91908 33.2225 5.60568C33.218 4.74211 32.512 3.67357 31.4618 2.9405C28.8821 1.13997 22.7459 0.204824 17.4868 0.811024ZM24.4806 3.59748C27.9801 4.05584 29.8829 4.68138 30.4041 5.54495C30.5681 5.81696 30.509 5.9489 30.0596 6.31255C28.2667 7.7628 21.8761 8.34352 16.9139 7.50688C13.8983 6.99846 12.0597 6.30315 12.0597 5.67147C12.0597 5.34415 13.2103 4.57854 14.1034 4.31158C17.1422 3.40301 20.9799 3.13895 24.4806 3.59748ZM29.8518 9.87059C29.8149 10.0942 28.8476 17.3532 27.7025 26.0016C26.5572 34.65 25.572 41.9903 25.5132 42.3133L25.4062 42.9007H23.7984H22.1903V26.8259V10.7513L22.9592 10.6615C23.3821 10.6123 24.5171 10.4802 25.4815 10.368C26.4461 10.2559 27.7486 10.0128 28.376 9.82793C29.8642 9.3891 29.931 9.39108 29.8518 9.87059ZM56.3727 23.0991C61.2933 24.9515 65.3454 26.4932 65.3774 26.5252C65.4094 26.5572 64.5584 26.9506 63.4862 27.3994C49.9433 33.0679 45.3888 35.017 45.1216 35.2585C44.4096 35.9023 45.0628 37.4827 46.0376 37.4744C46.3038 37.4722 51.6311 35.3254 57.8759 32.7039L69.2299 27.9373L79.3129 31.7359C84.8585 33.8251 89.4978 35.6157 89.6221 35.7152C89.8887 35.9285 89.922 36.508 89.6763 36.6596C89.5817 36.718 83.5918 38.9935 76.3653 41.7163C69.1387 44.439 63.0698 46.8079 62.8789 46.9805C62.6879 47.1533 62.5318 47.5296 62.5318 47.8168C62.5318 48.419 63.2395 49.2266 63.7673 49.2266C63.9584 49.2266 65.7122 48.6254 67.6649 47.8909L71.2151 46.5551V52.2312V57.9073L70.6272 58.2704C69.3893 59.0348 65.404 60.9907 63.5125 61.7619C57.5454 64.1952 51.7631 65.354 45.5269 65.3662C40.4031 65.3764 36.4348 64.7512 31.7364 63.1934C29.3264 62.3945 29.2495 62.3531 29.1557 61.8079C29.1023 61.4988 28.8165 59.1718 28.5201 56.6369C28.2238 54.102 27.9382 51.7723 27.8853 51.46C27.7994 50.9526 27.8486 50.8711 28.3445 50.6983C28.6498 50.5921 29.1225 50.3464 29.395 50.1527L29.8903 49.8003L37.1206 52.5368L44.351 55.2734L46.2505 55.2768L48.15 55.2801L52.5821 53.5952C55.0198 52.6686 57.1568 51.7819 57.3308 51.6248C58.0834 50.9465 57.5108 49.407 56.5064 49.4079C56.1888 49.4082 53.9917 50.1402 51.624 51.0345C47.8339 52.4663 47.1852 52.6592 46.1969 52.6493C45.2043 52.6393 44.2591 52.3295 38.0194 49.9696L30.9641 47.3013L30.8494 46.3763C30.6751 44.9691 29.664 43.6233 28.4622 43.1987C28.2133 43.1107 28.1554 42.9585 28.2283 42.5846C28.2819 42.3111 28.8255 38.3054 29.4368 33.683C30.048 29.0606 30.5709 25.2546 30.5985 25.2251C30.6653 25.1545 43.3434 20.3621 44.6223 19.9242C45.2684 19.703 45.9344 19.6094 46.5218 19.6573C47.1204 19.7061 50.4516 20.87 56.3727 23.0991ZM12.4246 32.3726C12.4262 32.5467 12.6267 34.434 12.8698 36.5669C13.113 38.6998 13.2803 40.4763 13.2416 40.5149C13.0876 40.6688 2.79369 36.6811 2.69745 36.4304C2.64119 36.284 2.67393 36.0395 2.77017 35.8869C2.90621 35.6715 11.6958 32.1492 12.2859 32.0737C12.3604 32.0641 12.423 32.1986 12.4246 32.3726ZM27.9036 46.053C28.2493 46.5258 28.2278 47.4064 27.8607 47.8116C27.5811 48.1203 27.1254 48.1422 20.9555 48.1422C13.6274 48.1422 13.6879 48.1519 13.6879 46.9739C13.6879 46.2706 13.9988 45.8442 14.5924 45.7343C14.8411 45.6883 17.8801 45.662 21.3459 45.6763C27.3586 45.7009 27.6587 45.7183 27.9036 46.053ZM19.4768 70.6585V90.4639L18.9793 90.3705C18.7056 90.319 17.9934 90.2252 17.3964 90.1621C15.329 89.943 12.5353 89.0948 11.6428 88.4149C11.3312 88.1776 11.4369 87.319 13.9493 69.6953C15.3974 59.5363 16.5823 51.1408 16.5823 51.0389C16.5823 50.9273 17.1603 50.8532 18.0296 50.8532H19.4768V70.6585ZM25.1722 51.6214C25.2324 52.0438 26.2531 60.4758 27.4407 70.3592C28.8988 82.4949 29.5413 88.3991 29.42 88.5452C28.8557 89.2246 25.9998 90.0777 23.4114 90.3401L22.1903 90.4639V70.6587V50.8532H23.6265H25.0625L25.1722 51.6214ZM69.5481 76.4906C70.5583 77.2092 70.6724 77.7333 70.6724 81.6514V85.1937H68.0493H65.4262V81.5153C65.4262 77.992 65.4436 77.8111 65.8369 77.2228C66.6705 75.9762 68.3572 75.6433 69.5481 76.4906Z" fill="black"/>
</svg>
