<svg width="94" height="94" viewBox="0 0 94 94" fill="none" xmlns="http://www.w3.org/2000/svg">
<path fill-rule="evenodd" clip-rule="evenodd" d="M16.3474 13.1565V25.4912H8.53552H0.723621V54.6086C0.723621 87.9357 0.607676 86.6768 3.99311 90.0627C7.43116 93.5003 5.21998 93.3322 46.9783 93.3322C88.7366 93.3322 86.5254 93.5003 89.9635 90.0627C93.4254 86.6003 93.2329 89.413 93.2329 42.2738V0.821777H54.7902H16.3474V13.1565ZM90.1493 44.1989V84.4923L89.137 86.2599C87.4258 89.2486 83.8603 90.8229 80.6928 89.9891C77.2551 89.0837 74.7603 85.9614 74.7401 82.5393L74.7311 80.9975H79.2538H83.7764V79.5584V78.1194H79.2538H74.7311V76.4747V74.8301H79.2538H83.7764V73.391V71.952H79.2538H74.7311V70.3074V68.6627H79.2538H83.7764V67.2237V65.7846H79.2538H74.7311V64.14V62.4954H79.2538H83.7764V61.0563V59.6173H79.2538H74.7311V57.9726V56.328H79.2538H83.7764V54.889V53.4499H79.2538H74.7311V51.8053V50.1607H79.2538H83.7764V48.7216V47.2826H79.2538H74.7311V41.1152V34.9478H55.8448H36.9589L30.6111 30.2195L24.2633 25.4912H21.7442H19.2255V14.5931V3.69536L54.6874 3.8002L90.1493 3.90546V44.1989ZM28.682 11.7174V13.1565H31.5601H34.4381V11.7174V10.2784H31.5601H28.682V11.7174ZM41.0166 11.7174V13.1565H62.3965H83.7764V11.7174V10.2784H62.3965H41.0166V11.7174ZM28.682 17.8848V19.3239H31.5601H34.4381V17.8848V16.4458H31.5601H28.682V17.8848ZM41.0166 17.8848V19.3239H62.3965H83.7764V17.8848V16.4458H62.3965H41.0166V17.8848ZM28.682 24.0522V25.4912H31.5601H34.4381V24.0522V22.6131H31.5601H28.682V24.0522ZM41.0166 24.0522V25.4912H62.3965H83.7764V24.0522V22.6131H62.3965H41.0166V24.0522ZM29.3596 33.0976L35.6588 37.8259H53.7808H71.9028L71.7749 39.3678L71.6474 40.9096H37.7273H3.80727L3.69214 35.1731C3.62924 32.0183 3.66953 29.1966 3.78218 28.903C3.94212 28.4869 6.08505 28.3693 13.5236 28.3693H23.0607L29.3596 33.0976ZM41.0166 30.2195V31.6586H62.3965H83.7764V30.2195V28.7805H62.3965H41.0166V30.2195ZM6.89091 34.7423C6.89091 36.1126 6.95957 36.1813 8.32994 36.1813C9.70031 36.1813 9.76898 36.1126 9.76898 34.7423C9.76898 33.3719 9.70031 33.3032 8.32994 33.3032C6.95957 33.3032 6.89091 33.3719 6.89091 34.7423ZM13.0582 34.7423C13.0582 36.1126 13.1269 36.1813 14.4972 36.1813C15.8676 36.1813 15.9363 36.1126 15.9363 34.7423C15.9363 33.3719 15.8676 33.3032 14.4972 33.3032C13.1269 33.3032 13.0582 33.3719 13.0582 34.7423ZM19.2255 34.7423C19.2255 36.1126 19.2941 36.1813 20.6645 36.1813C22.0349 36.1813 22.1036 36.1126 22.1036 34.7423C22.1036 33.3719 22.0349 33.3032 20.6645 33.3032C19.2941 33.3032 19.2255 33.3719 19.2255 34.7423ZM71.9451 65.1346L72.0586 86.2763L73.3948 88.1717C74.1296 89.214 74.7311 90.1593 74.7311 90.2723C74.7311 90.3854 60.0686 90.4261 42.1472 90.3632L9.5634 90.2485L7.77571 89.2251C6.67423 88.5944 5.56947 87.4892 4.89764 86.347L3.80727 84.4923L3.68639 64.2428L3.56551 43.9933H37.6986H71.8312L71.9451 65.1346ZM13.0582 67.2237V87.1648H37.7273H62.3965V67.2237V47.2826H37.7273H13.0582V67.2237ZM59.4202 67.1209L59.3129 84.0811H56.2292H53.1456L52.91 80.7919C52.6333 76.9266 51.9425 75.1376 49.8198 72.7879C47.7846 70.5351 44.7733 69.0381 41.7205 68.7614L39.2893 68.541L40.6638 67.9629C43.606 66.7258 45.2346 64.2839 45.2621 61.067C45.3004 56.6594 42.1255 53.4499 37.7273 53.4499C33.8415 53.4499 31.0182 55.8486 30.1461 59.8911C29.515 62.8157 31.5535 66.5033 34.5401 67.8404L36.1152 68.5456L33.7092 68.7639C30.7127 69.0357 27.6669 70.5388 25.6983 72.718C23.4077 75.2532 22.8177 76.7276 22.5509 80.5863L22.3091 84.0811H19.2255H16.1418L16.0345 67.1209L15.9272 50.1607H37.7273H59.5275L59.4202 67.1209ZM40.8521 57.7259C41.9314 58.8052 42.25 59.466 42.25 60.6246C42.25 63.5175 40.4052 65.5104 37.7273 65.5104C35.0495 65.5104 33.2047 63.5175 33.2047 60.6246C33.2047 58.3879 35.3727 56.328 37.7273 56.328C39.1429 56.328 39.7062 56.5801 40.8521 57.7259ZM42.6201 71.9816C47.1884 72.9614 50.05 76.707 50.0578 81.717L50.0619 84.2867H37.7273H25.3928L25.3969 81.717C25.4043 76.9003 28.0172 73.2698 32.3088 72.1144C34.7132 71.4668 39.9081 71.3998 42.6201 71.9816Z" fill="black"/>
</svg>
