<svg width="93" height="93" viewBox="0 0 93 93" fill="none" xmlns="http://www.w3.org/2000/svg">
<path fill-rule="evenodd" clip-rule="evenodd" d="M39.9617 4.85324C33.4596 7.24198 25.5422 10.141 22.3676 11.2961C19.193 12.4509 16.4773 13.4683 16.3327 13.5571C16.1126 13.6925 2.85686 49.14 2.98722 49.2448C3.01128 49.2641 5.71445 48.312 8.99428 47.129L14.9576 44.9782L16.8642 46.8618C18.6113 48.5883 18.7925 48.8439 19.0344 49.922C19.8101 53.3816 21.797 57.5544 24.111 60.5832L25.5583 62.4777L23.3443 64.7104C22.0697 65.9959 21.1302 67.114 21.1302 67.3454C21.1302 68.0586 24.1455 70.7054 27.1981 72.6718C31.8062 75.6403 36.9449 77.4385 42.5718 78.0519L44.9835 78.3147V81.6897V85.0644L40.851 85.132C37.1424 85.1927 36.6181 85.2458 35.7401 85.6489C33.4075 86.7202 31.884 88.9765 31.7614 91.5416L31.6968 92.8931L46.1119 92.9466L60.5272 93L60.4147 91.37C60.2375 88.8 59.0341 86.9288 56.8055 85.7575C55.7945 85.2262 55.6204 85.2052 51.6268 85.1328L47.4944 85.058V81.542V78.0259H48.3568C49.8485 78.0259 53.4493 77.4133 55.7995 76.7596C61.4054 75.2005 66.1273 72.4967 70.4741 68.357C73.3969 65.5732 75.6243 62.5891 77.3876 59.094C79.5356 54.8367 80.5318 51.4563 81.0137 46.7878C81.3156 43.863 81.1775 43.228 80.2188 43.1344C79.8658 43.0999 79.4835 43.1935 79.3691 43.3424C79.2548 43.4912 79.0485 44.7917 78.9106 46.2324C78.1494 54.1871 75.1259 60.5819 69.4783 66.1816C64.6357 70.9834 59.6212 73.7017 52.9346 75.1497C51.0313 75.5621 50.1498 75.6253 46.3435 75.6226C42.2686 75.6199 41.7683 75.5775 39.4547 75.0368C33.9057 73.7404 29.2717 71.418 24.7753 67.6797L23.9608 67.0027L25.6481 65.3259L27.3354 63.6492L28.5745 64.6686C35.5081 70.3731 44.421 72.4061 53.0068 70.2417C60.8112 68.2744 67.2825 63.2483 71.1173 56.1756C72.7598 53.1462 74.0678 48.2677 74.0678 45.1705C74.0678 43.6484 73.8169 43.217 73.0021 43.337C72.3683 43.4305 72.2604 43.7243 71.9927 46.0865C71.714 48.5449 71.1409 50.8671 70.2772 53.0379C69.4266 55.1757 69.2553 55.2965 69.2553 53.7575C69.2553 51.3459 68.2013 47.3247 66.8143 44.4446L66.2135 43.197L65.1364 43.1348C63.9079 43.0637 64.2034 42.7791 61.9421 46.2121C60.3366 48.6492 57.3899 52.2981 57.1049 52.201C57.0034 52.1664 54.8052 50.1551 52.2202 47.7314C47.2882 43.107 46.8922 42.8408 45.4557 43.1858C45.0833 43.2752 43.201 44.9869 40.1452 48.015L35.4116 52.7058L34.5723 51.7982C33.5552 50.6978 32.1525 48.9676 31.1396 47.5636C30.3746 46.5034 29.0813 44.3093 29.0813 44.0716C29.0813 43.9994 29.6699 43.5461 30.389 43.0644C31.1084 42.5828 32.0813 41.8789 32.5515 41.5003L33.406 40.812L60.0665 40.7569L86.7268 40.7018L87.9142 40.1487C92.0161 38.2378 93.6672 33.5264 91.6571 29.4686C90.5862 27.3067 88.6809 25.9094 86.0677 25.3692L84.7978 25.1068L86.4412 22.4037C88.5145 18.9931 90.6253 14.786 91.3445 12.6308C92.3969 9.47602 91.7282 6.26843 89.5218 3.88967C87.5748 1.79058 85.4985 0.866319 82.7234 0.863408C80.1035 0.860704 77.9686 1.75877 76.138 3.63329C73.7215 6.1077 73.0084 9.4128 74.1573 12.8136C75.0234 15.3774 78.176 21.4064 80.1778 24.327L80.7835 25.2108H79.8737C79.3735 25.2108 78.851 25.323 78.7129 25.4603C78.384 25.7872 78.3907 26.7653 78.7234 27.0364C78.8698 27.1556 80.55 27.2839 82.542 27.3279C85.5785 27.3951 86.2371 27.4691 87.0429 27.8345C91.321 29.7741 91.5439 35.752 87.4223 38.0049C86.3545 38.5886 86.1961 38.614 83.6116 38.6181L80.9149 38.6225L80.519 36.6818C79.2923 30.6699 76.1962 24.4961 72.2897 20.2723C70.3228 18.1458 70.1843 18.1626 67.456 20.8645L65.3358 22.9645L63.4413 21.5349C60.024 18.9567 56.6429 17.3276 53.1076 16.5562C51.5069 16.2068 51.4965 16.2 49.6073 14.3142L47.7122 12.4228L49.4932 7.53641C50.4727 4.84887 51.458 2.15883 51.6829 1.55832C51.9078 0.957809 52.0225 0.476443 51.9378 0.488503C51.853 0.500563 46.4638 2.4647 39.9617 4.85324ZM85.7536 3.7699C87.1241 4.47625 88.4287 5.78041 89.0765 7.09102C89.5647 8.07912 89.6555 8.52659 89.6526 9.92765C89.6494 11.4454 89.5626 11.7914 88.661 13.8784C87.1975 17.2656 83.0151 24.5015 82.6504 24.2773C81.954 23.8498 77.3162 15.3412 76.342 12.7042C75.7921 11.216 75.7134 10.759 75.7925 9.51178C75.9654 6.78473 77.6968 4.45941 80.2872 3.47547C81.518 3.00803 84.5973 3.17376 85.7536 3.7699ZM48.2834 4.46939C48.2325 4.61245 47.7356 6.03929 47.1792 7.64038C46.6229 9.24147 46.1349 10.5922 46.095 10.6419C46.0548 10.6916 45.6706 10.3976 45.2413 9.98857L44.4604 9.24479L42.6818 9.83636C30.6836 13.8264 16.4332 28.0075 12.3647 40.0063L11.7544 41.8057L12.3622 42.3844C12.6964 42.7025 12.9698 43.0251 12.9698 43.101C12.9698 43.2783 6.87238 45.6282 6.7437 45.5005C6.62694 45.3843 17.553 15.6284 17.8198 15.3364C18.0177 15.1197 47.604 4.26478 48.0921 4.22985C48.2482 4.21862 48.3344 4.32654 48.2834 4.46939ZM81.1654 5.53339C80.0899 5.91557 79.5017 6.37448 78.8481 7.34158C76.9879 10.094 78.7146 13.9474 82.0595 14.509C84.155 14.8609 86.5368 13.2858 87.167 11.1314C88.2147 7.55034 84.7045 4.27622 81.1654 5.53339ZM83.5597 7.61522C84.5942 8.04481 85.1575 8.87717 85.1575 9.97651C85.1575 10.7552 85.0426 11.0191 84.4461 11.6119C83.8495 12.2047 83.584 12.3189 82.8004 12.3189C80.5207 12.3189 79.4086 9.74654 81.0032 8.16188C81.523 7.64537 81.8027 7.51312 82.7056 7.35676C82.7956 7.34116 83.1799 7.4574 83.5597 7.61522ZM48.9574 17.0982C48.9538 17.7083 46.9315 22.0127 45.6436 24.1511C39.9626 33.5834 30.6891 41.8165 21.5014 45.5847L19.5609 46.3805L16.9079 43.7668L14.2548 41.153L14.7718 39.7838C17.2258 33.2834 22.9934 25.6212 29.6044 20.0783C33.4477 16.856 38.6567 13.685 42.4929 12.2324L43.8327 11.725L46.3958 14.2541C47.8057 15.6452 48.9582 16.925 48.9574 17.0982ZM54.0854 19.0927C55.0061 19.3988 56.2301 19.8922 56.8055 20.1892L57.8517 20.7294L56.1778 20.8618C54.1153 21.0253 52.5111 21.353 50.5798 22.0057C49.7646 22.2814 49.0601 22.4694 49.0143 22.4238C48.9684 22.3783 49.1588 21.8874 49.4376 21.3326C49.7163 20.778 50.1161 19.8694 50.326 19.3136L50.7076 18.3026L51.5595 18.4194C52.0282 18.4837 53.1647 18.7867 54.0854 19.0927ZM73.2078 25.0028C74.7989 27.3196 75.7402 29.0542 76.6533 31.3506C77.4355 33.3183 78.461 37.1773 78.4616 38.1546L78.4618 38.7264H76.074H73.6861L73.5405 37.8427C73.2798 36.2604 72.1547 33.0499 71.1903 31.1369C70.1121 28.9981 69.4538 27.9844 67.826 25.9572L66.6722 24.5204L68.4181 22.8495L70.164 21.1783L71.079 22.207C71.5824 22.7725 72.5403 24.0307 73.2078 25.0028ZM59.8623 23.1358C60.4816 23.2524 61.5961 23.6305 62.3386 23.9758L63.6887 24.6036L60.3542 27.9222C58.5202 29.7475 56.9714 31.2375 56.9126 31.2334C56.8536 31.2294 55.8169 30.3779 54.6085 29.3416C53.4001 28.305 51.5944 26.9133 50.5957 26.249L48.7799 25.0411L49.7778 24.6146C52.9827 23.2445 57.1763 22.6295 59.8623 23.1358ZM65.9173 27.5577C66.7438 29.3127 67.0287 30.9662 66.875 33.1122C66.7532 34.8123 66.6735 35.2207 65.9938 37.6348L65.6865 38.7264H64.4451H63.2038L62.0137 37.115C61.3592 36.2287 60.305 34.9111 59.6713 34.1868L58.5186 32.8702L61.8444 29.5603C63.6736 27.7399 65.1998 26.2504 65.236 26.2504C65.2722 26.2504 65.5787 26.8387 65.9173 27.5577ZM48.239 27.4084C49.8657 28.3795 52.0424 29.9544 53.9306 31.5265L55.4494 32.7912L52.4686 35.7588L49.4876 38.7264H46.237H42.9865L41.259 37.0008L39.5315 35.2752L40.0894 34.7655C41.114 33.8294 44.321 30.0292 45.5137 28.3379C46.1619 27.4184 46.7605 26.6663 46.844 26.6663C46.9275 26.6663 47.5552 27.0002 48.239 27.4084ZM70.8105 36.1273C71.0742 37.0422 71.3516 38.0482 71.4274 38.3626L71.5648 38.9344H69.7683C68.1538 38.9344 67.9831 38.8976 68.0842 38.5705C68.4936 37.246 68.8565 35.2377 68.9763 33.6339L69.1159 31.7644L69.7235 33.1141C70.0579 33.8564 70.5469 35.2124 70.8105 36.1273ZM58.8774 36.5113C59.7518 37.5807 60.4672 38.5166 60.4672 38.5911C60.4672 38.6655 58.7035 38.7264 56.5477 38.7264H52.6283L54.8069 36.554C56.0052 35.3592 57.0535 34.4233 57.1365 34.4744C57.2196 34.5254 58.003 35.4419 58.8774 36.5113ZM39.7525 38.6657C39.7525 38.6992 38.9325 38.7264 37.9304 38.7264H36.1084L37.0328 37.7903L37.9572 36.8542L38.8549 37.7296C39.3487 38.2112 39.7525 38.6325 39.7525 38.6657ZM51.0027 49.8024L55.449 54.2246L53.8592 55.5726C52.0964 57.0674 49.2825 59.1112 47.5534 60.1525L46.426 60.8316L45.5478 60.3522C43.6967 59.3414 41.0456 57.3999 37.6833 54.593L37.137 54.1368L41.5291 49.7586C43.9448 47.3505 46.0642 45.3803 46.2389 45.3803C46.4136 45.3803 48.5573 47.3702 51.0027 49.8024ZM28.4648 47.0958C29.3064 48.4571 30.6106 50.1749 32.5028 52.4137L33.9655 54.1445L30.5907 57.4983L27.2159 60.852L26.5804 59.5023C26.231 58.7602 25.8393 57.595 25.7104 56.9129C25.3924 55.2332 25.6062 52.3623 26.2283 49.9549C26.7081 48.0982 27.486 46.0041 27.6959 46.0041C27.7476 46.0041 28.0937 46.4955 28.4648 47.0958ZM65.7187 48.1789C66.8978 51.6662 67.2229 54.9274 66.6375 57.3949C66.3125 58.7652 65.6589 60.2226 65.2596 60.468C65.0265 60.611 58.584 54.4075 58.584 54.0399C58.584 53.9395 59.1193 53.2833 59.7732 52.5819C60.9953 51.2713 63.3606 48.1795 64.2205 46.7687C64.5315 46.2584 64.7773 46.0455 64.9068 46.1742C65.0177 46.2844 65.3831 47.1866 65.7187 48.1789ZM24.8004 46.7839C24.2799 48.128 23.5917 51.4252 23.4659 53.1778L23.3165 55.2572L22.8746 54.4254C22.2789 53.3038 20.9209 49.3144 20.9209 48.6858C20.9209 48.2552 21.1906 48.0541 22.7518 47.3203C24.8668 46.3264 24.99 46.294 24.8004 46.7839ZM37.137 57.0656C38.8523 58.5662 41.5155 60.558 42.83 61.3236C43.4194 61.6669 43.6831 61.9349 43.5554 62.0618C43.1993 62.4157 39.7738 63.4647 37.9323 63.7839C34.7 64.3441 32.4856 64.1332 30.1392 63.042L28.7892 62.4142L32.1236 59.0956C33.9576 57.2704 35.5064 55.7787 35.5652 55.7805C35.6242 55.7826 36.3314 56.3609 37.137 57.0656ZM60.3542 59.0956L63.6887 62.4142L62.3386 63.042C59.9922 64.1332 57.7778 64.3441 54.5455 63.7839C52.7017 63.4643 49.2783 62.4155 48.9214 62.0607C48.7927 61.9329 49.1206 61.616 49.8324 61.1808C51.1989 60.3451 53.6837 58.4753 55.4685 56.9391C56.2039 56.3064 56.8536 55.7859 56.9126 55.7828C56.9714 55.7797 58.5202 57.2704 60.3542 59.0956ZM47.9356 63.9685C50.7298 65.2442 53.2507 65.9046 56.8055 66.292L58.0609 66.429L56.925 66.9297C53.4039 68.4821 49.5876 69.17 45.2973 69.0253C41.8562 68.9095 39.7056 68.4697 36.4323 67.2127C34.4822 66.464 34.4746 66.1853 36.4047 66.1724C38.4878 66.1585 42.585 65.0644 45.2555 63.8088C45.8539 63.5275 46.3538 63.2894 46.3663 63.2799C46.3789 63.2705 47.0851 63.5803 47.9356 63.9685ZM10.1913 67.309C8.75909 67.6799 7.5296 68.9664 7.5296 70.0941C7.5296 70.4744 7.34233 70.5049 4.6151 70.5723C2.05045 70.6355 1.62988 70.6966 1.11034 71.0801C-0.00407174 71.9031 0.00346095 71.8315 0.000113118 81.6333C-0.002607 89.5101 0.0419611 90.845 0.326945 91.4422C0.890637 92.6224 1.55979 92.7892 5.73035 92.7892H9.41275V91.7358C9.41275 90.0908 10.0139 89.273 11.2319 89.261C11.6393 89.2568 12.1235 89.4452 12.4718 89.7427C12.9512 90.1528 13.0581 90.4368 13.1362 91.5102L13.2293 92.7892H16.7679C22.4245 92.7892 22.3856 92.827 22.3856 87.3365V83.4322H21.2187C20.1976 83.4322 19.9722 83.3531 19.4157 82.8C18.8808 82.2686 18.8009 82.0617 18.9137 81.5005C19.1319 80.4148 19.8768 79.8447 21.2212 79.7338L22.3856 79.6378V75.9368C22.3856 72.2676 22.381 72.2301 21.8491 71.602C21.1377 70.7619 20.2309 70.5428 17.4582 70.5415L15.1463 70.5403L14.8814 69.8125C14.1328 67.755 12.2823 66.7671 10.1913 67.309ZM12.1444 69.5069C12.7472 69.8273 13.1791 70.8185 13.1791 71.8815V72.8275H16.7361H20.2932V75.2997V77.7716L19.595 77.9018C17.9035 78.2172 16.3664 80.3959 16.6252 82.1114C16.8565 83.6436 18.399 85.3036 19.5918 85.3036C20.0823 85.3036 20.084 85.3125 20.084 87.9027V90.5019H17.6003H15.1166L14.8586 89.5862C14.2138 87.2974 11.4319 86.2391 9.3096 87.475C8.50675 87.9426 7.79701 88.9549 7.44255 90.138C7.34651 90.4584 7.03265 90.5019 4.81597 90.5019H2.29861V81.6647V72.8275H5.85568H9.41275V71.5706C9.41275 70.513 9.49436 70.2323 9.92644 69.8032C10.4755 69.2573 11.4346 69.1292 12.1444 69.5069ZM71.7695 70.7532C71.3686 70.847 70.8271 71.1701 70.5664 71.4712C70.1228 71.9837 70.0922 72.2054 70.0922 74.9185C70.0922 77.3904 70.0447 77.818 69.77 77.818C69.1488 77.818 67.8094 78.653 67.2392 79.396C66.445 80.4304 66.3081 82.1746 66.9264 83.3789C67.4217 84.3439 68.3675 85.0954 69.3316 85.2907L69.9876 85.4235L70.0922 88.3747C70.1945 91.2609 70.2096 91.3384 70.7769 91.9015L71.3569 92.4773L80.8712 92.5353C89.1236 92.5858 90.4684 92.5509 91.0112 92.2718C92.1329 91.6954 92.2716 91.1245 92.2716 87.0814V83.4322H91.0068C89.9426 83.4322 89.6601 83.3511 89.2282 82.9217C88.679 82.3761 88.5501 81.4229 88.9301 80.7176C89.2525 80.1185 90.2499 79.6894 91.3196 79.6894H92.2716V75.7286C92.2716 71.7685 92.2716 71.7679 91.7473 71.2851C91.0578 70.6503 90.297 70.5453 86.3606 70.5426L83.0651 70.5403V71.7972C83.0651 73.3908 82.5066 74.0751 81.2064 74.0751C79.9164 74.0751 79.2988 73.2291 79.2988 71.4625V70.5403L75.8986 70.5615C74.0286 70.5733 72.1704 70.6594 71.7695 70.7532ZM77.6832 73.6433C78.4331 75.7413 80.7061 76.6907 82.7598 75.7636C83.8129 75.2884 84.68 74.2875 84.8587 73.3414L84.9949 72.6196H87.5869H90.1792V75.1984V77.7772L89.6011 77.9776C87.9485 78.5501 86.6853 80.4918 86.9264 82.0887C87.1607 83.6426 88.6953 85.3036 89.8963 85.3036C90.3868 85.3036 90.3885 85.3125 90.3885 87.9027V90.5019H81.3912H72.3939V86.967V83.4322H71.129C70.0648 83.4322 69.7823 83.3511 69.3505 82.9217C68.8012 82.3761 68.6723 81.4229 69.0523 80.7176C69.3747 80.1185 70.3722 79.6894 71.4418 79.6894H72.3939V76.1545V72.6196H74.8556H77.3175L77.6832 73.6433ZM56.3291 87.8564C57.175 88.3504 58.3748 89.8213 58.3748 90.3643C58.3748 90.4399 52.9607 90.5019 46.3435 90.5019C36.8577 90.5019 34.3125 90.447 34.3131 90.242C34.3158 89.31 36.0176 87.7245 37.3596 87.4033C37.8235 87.2922 41.9309 87.222 46.762 87.2425L55.3408 87.2789L56.3291 87.8564Z" fill="black"/>
</svg>
