<svg width="94" height="93" viewBox="0 0 94 93" fill="none" xmlns="http://www.w3.org/2000/svg">
<path fill-rule="evenodd" clip-rule="evenodd" d="M5.51205 0.213431C3.484 0.815836 1.76926 2.2957 1.02277 4.08772C0.635542 5.01765 0.596092 5.43223 0.585559 8.69868C0.574068 12.2585 0.577516 12.2909 1.02602 12.6345C1.56013 13.0442 2.36369 13.0833 2.88325 12.7248C3.2226 12.4906 3.26339 12.1644 3.35263 8.96993C3.44475 5.66729 3.47692 5.42643 3.92715 4.66515C4.18932 4.22181 4.77763 3.61108 5.23437 3.30797L6.06474 2.75714H37.2159H68.367L69.1331 3.13516C70.1929 3.65812 70.9832 4.76884 71.0977 5.89638L71.1897 6.79935L70.3528 7.19764C69.8926 7.4166 68.7836 8.10478 67.8883 8.72673C66.993 9.34867 66.0753 9.948 65.8489 10.0587C65.6226 10.1695 64.3299 10.4265 62.9763 10.63C58.2892 11.3347 57.1511 12.3998 56.4808 16.71C56.1055 19.1225 55.828 19.7428 54.2469 21.7008C52.7892 23.5062 52.2811 24.6312 52.3008 26.0101C52.3194 27.3077 52.8374 28.3862 54.3863 30.3521C55.9335 32.3155 56.0959 32.6874 56.4804 35.1484C57.1521 39.444 58.4217 40.6253 63.0204 41.2331L64.6239 41.4452L64.6761 52.1707L64.7284 62.8963L65.19 63.3605C65.6888 63.8621 66.6517 64.1163 67.3898 63.9414C67.6437 63.8811 68.269 63.5228 68.7795 63.145C69.2899 62.7669 70.0324 62.2264 70.4294 61.9436L71.1513 61.4293L71.0996 74.4504L71.0481 87.4715L70.5092 88.241C70.136 88.7739 69.6647 89.1448 68.9772 89.4474L67.984 89.8842L37.4195 89.886C15.0751 89.8873 6.67986 89.8325 6.20396 89.6819C5.21962 89.3705 4.35306 88.6856 3.87563 87.8416L3.44647 87.083L3.39629 52.034L3.34593 16.9851L2.8438 16.6117C2.18923 16.1251 1.76888 16.1405 1.11124 16.6751L0.573877 17.1119L0.521596 51.464C0.488848 72.9613 0.53864 86.2443 0.654501 86.96C1.01836 89.204 2.34607 90.9345 4.458 91.9169L5.7365 92.5117H37.339H68.9416L70.0178 92.0349C71.4748 91.3893 72.4909 90.4792 73.2698 89.122L73.9207 87.9878L73.9734 74.7327C74.0023 67.4423 74.081 61.4776 74.148 61.4776C74.2151 61.4776 74.9238 61.9539 75.7232 62.536C77.9287 64.1424 78.4278 64.2978 79.5765 63.7365C80.7198 63.1779 80.7192 63.183 80.7192 54.3389C80.7192 46.5185 80.7077 46.2664 80.3362 45.9153C79.821 45.4286 78.7193 45.4316 78.2756 45.9211C77.9749 46.2528 77.933 46.9861 77.8466 53.4366L77.7508 60.5846L75.6588 59.0496C72.7734 56.9325 72.5024 56.9295 69.765 58.9837C68.7855 59.7187 67.8764 60.3818 67.7446 60.4572C67.5545 60.5662 67.5053 58.77 67.5053 51.7109V42.8273L68.5107 43.5367C70.3137 44.8086 71.0738 45.0927 72.6759 45.0927C74.3679 45.0927 74.974 44.8421 77.4636 43.1125C79.6132 41.6192 79.6086 41.6211 81.8981 41.2999C82.9876 41.1471 84.3155 40.9037 84.8488 40.7592C87.2511 40.1077 88.3377 38.566 88.8672 35.0579C89.2466 32.5446 89.3586 32.2846 90.852 30.4435C92.5292 28.3763 93.0235 27.353 93.0235 25.9487C93.0235 24.4819 92.6514 23.7074 90.8106 21.3427C89.2653 19.3578 89.2039 19.2016 88.7609 16.1479C88.3926 13.6079 87.2905 11.9925 85.423 11.2551C85.061 11.1123 83.6734 10.8298 82.3395 10.6277C81.0059 10.4254 79.7293 10.1695 79.5029 10.0587C79.2766 9.948 78.3589 9.34686 77.4636 8.72274C76.5683 8.09862 75.4373 7.40592 74.9503 7.18334L74.0647 6.77872L73.9688 5.6501C73.7861 3.50033 72.2537 1.51017 70.0178 0.51961L68.9416 0.0427883L37.6303 0.0082255C12.0968 -0.0198228 6.17007 0.0179972 5.51205 0.213431ZM35.5301 8.55482C33.5556 9.07724 32.162 10.1644 31.1568 11.9666C30.6587 12.8594 30.639 13.0056 30.5779 16.2849C30.5063 20.1277 30.6625 20.8934 31.8079 22.3112C32.4137 23.061 32.4596 23.2123 32.4596 24.4587V25.7996L31.2323 26.1856C29.1156 26.8512 27.5234 28.134 26.5325 29.9721C26.0589 30.8507 25.1824 34.4845 25.1824 35.5693C25.1824 37.3094 26.2683 38.8973 28.011 39.706L29.1083 40.2152L36.4389 40.2738C44.5471 40.3386 45.8291 40.24 47.1899 39.4469C48.2288 38.8414 49.2362 37.3794 49.4223 36.207C49.5954 35.1153 48.8459 31.2721 48.2106 29.996C47.4687 28.5049 45.8482 27.0928 44.0823 26.3981C43.2868 26.0852 42.5507 25.8291 42.4465 25.8291C42.3421 25.8291 42.2284 25.2001 42.1937 24.4312C42.138 23.1933 42.1803 22.9776 42.5645 22.5469C42.8031 22.2795 43.234 21.5853 43.522 21.0045C44.0335 19.9728 44.0458 19.8697 44.0458 16.6003C44.0458 13.2935 44.0391 13.2389 43.4942 12.1246C42.1102 9.29294 38.6317 7.734 35.5301 8.55482ZM73.8658 9.69756C74.2486 9.88195 75.1098 10.4447 75.7793 10.9482C77.9492 12.5798 78.6299 12.8296 82.527 13.4244C84.3149 13.6972 85.0507 14.0458 85.4461 14.8071C85.5706 15.0468 85.8514 16.2507 86.0699 17.4821C86.5494 20.184 86.8594 20.8834 88.5022 22.9682C89.2 23.8536 89.8783 24.8737 90.0097 25.2349C90.3971 26.2998 90.2815 26.5372 87.7103 29.9533C86.7466 31.2336 86.4037 32.1941 86.0061 34.7262C85.5189 37.8289 85.2272 38.0815 81.5407 38.5933C79.0594 38.9378 77.9605 39.3795 75.7576 40.9184C73.753 42.3188 73.4397 42.4772 72.6759 42.4772C71.9122 42.4772 71.5989 42.3188 69.5942 40.9184C67.3668 39.3625 66.3049 38.9424 63.6979 38.5851C60.1384 38.0976 59.8201 37.8233 59.3573 34.844C58.9105 31.9692 58.6418 31.2879 57.2536 29.5114C56.5655 28.6307 55.7807 27.4766 55.5093 26.9467C55.0302 26.0105 55.025 25.9618 55.3236 25.2276C55.4927 24.812 56.1553 23.8205 56.7962 23.0243C58.6339 20.7412 58.8459 20.2414 59.3548 16.9952C59.5156 15.9681 59.7966 14.8892 59.9789 14.5975C60.3996 13.9245 61.3223 13.5986 63.7709 13.2584C66.4409 12.8875 67.1523 12.6128 69.2288 11.151C71.9162 9.2591 72.5459 9.06168 73.8658 9.69756ZM39.0926 11.4776C39.8644 11.856 40.7679 12.8162 40.9755 13.4787C41.1276 13.9636 40.6772 14.1766 38.8588 14.4792C37.8835 14.6415 37.5644 14.6241 36.9001 14.3729C35.9983 14.032 35.2976 14.1757 34.9609 14.7701C34.0516 16.3754 36.2312 17.639 39.1239 17.1837C39.8296 17.0726 40.6009 16.9271 40.838 16.8604C41.2505 16.7442 41.2689 16.7842 41.2678 17.8006C41.2664 19.2684 40.9738 20.1265 40.1984 20.9375C39.3387 21.8367 38.4762 22.21 37.2586 22.21C35.6988 22.21 34.459 21.4614 33.7144 20.07C33.4425 19.5621 33.4017 18.9957 33.4526 16.4369C33.5095 13.5784 33.5392 13.3694 33.9745 12.7698C35.1658 11.1287 37.2885 10.5929 39.0926 11.4776ZM71.9099 15.7386C71.6466 15.8671 70.7327 16.9456 69.879 18.1354L68.3268 20.2986L65.5822 21.0544C62.8164 21.8161 62.4405 22.0207 62.2097 22.8886C62.023 23.5911 62.2798 24.0545 63.9747 26.0756L65.6229 28.0412L65.5588 30.84L65.4944 33.6389L66.1199 34.1674C66.4639 34.4582 66.9168 34.696 67.1263 34.696C67.3358 34.696 68.6648 34.2934 70.0801 33.8014L72.6528 32.9069L75.2779 33.8099C78.1306 34.7914 78.6249 34.8209 79.3857 34.0554C79.8078 33.6311 79.8226 33.5102 79.7825 30.8138L79.741 28.0127L81.3822 26.0613C83.0971 24.0221 83.3294 23.5936 83.1289 22.8388C82.9142 22.0303 82.3705 21.7449 79.6757 21.0264L77.0323 20.3217L75.5512 18.2328C74.7367 17.0839 73.9422 16.0435 73.7857 15.9208C73.3393 15.5707 72.4344 15.4829 71.9099 15.7386ZM73.9041 20.7747C74.5268 21.674 75.2034 22.4943 75.4076 22.5974C75.6117 22.7008 76.5241 22.985 77.4351 23.2295C79.8363 23.8735 79.6849 23.7879 79.244 24.2505C79.033 24.4718 78.4167 25.2074 77.8747 25.8852L76.8891 27.1175V29.2782C76.8891 30.4665 76.8534 31.4388 76.8098 31.4388C76.7661 31.4388 75.94 31.1538 74.974 30.8054C74.008 30.4571 72.9881 30.1725 72.7073 30.173C72.4268 30.1735 71.3882 30.4586 70.3997 30.8064C69.4111 31.1542 68.5708 31.4388 68.5325 31.4388C68.4942 31.4388 68.4628 30.4678 68.4628 29.2812V27.1235L67.7615 26.2502C67.3758 25.7698 66.763 25.0317 66.3997 24.6097C65.9244 24.0578 65.8122 23.8191 65.9998 23.7583C66.1431 23.7118 67.0058 23.4738 67.9168 23.2295C68.8278 22.985 69.7401 22.7008 69.9443 22.5974C70.1484 22.4943 70.825 21.674 71.4478 20.7747C72.0706 19.8753 72.6233 19.1393 72.6759 19.1393C72.7286 19.1393 73.2813 19.8753 73.9041 20.7747ZM39.3539 25.7797C39.3539 26.6035 39.2882 26.7661 38.846 27.0399C38.2648 27.3998 36.6858 27.4458 35.8589 27.127C35.37 26.9384 35.3322 26.849 35.3322 25.8789V24.8339H37.343H39.3539V25.7797ZM33.4271 28.9121C35.663 30.4164 38.594 30.4761 40.9221 29.0645C41.7444 28.5657 41.8957 28.5317 42.479 28.7136C43.6463 29.0777 44.8589 29.9388 45.3742 30.7696C45.953 31.7028 46.7021 35.0178 46.535 35.9066C46.4723 36.2399 46.1805 36.6795 45.8438 36.9471L45.2613 37.4104H37.2605H29.26L28.7609 36.9734C28.4865 36.7331 28.2055 36.3241 28.1366 36.0646C27.9773 35.4645 28.5619 32.3009 29.0081 31.3483C29.4635 30.3766 30.4356 29.4839 31.5979 28.9702C32.7632 28.4552 32.7488 28.4557 33.4271 28.9121ZM8.41701 46.5405C8.15848 46.7848 7.94686 47.1956 7.94686 47.4535C7.94686 48.0568 8.74468 48.8107 9.38316 48.8107C10.0216 48.8107 10.8195 48.0568 10.8195 47.4535C10.8195 46.8502 10.0216 46.0963 9.38316 46.0963C9.11026 46.0963 8.67554 46.2963 8.41701 46.5405ZM13.8137 46.4714C13.1158 46.99 13.1158 47.9169 13.8137 48.4355C14.3177 48.8103 14.3418 48.8107 37.1441 48.8107H59.9697L60.3862 48.3919C60.9753 47.7993 60.9362 46.9457 60.2979 46.4714C59.7939 46.0967 59.7688 46.0963 37.0558 46.0963C14.3428 46.0963 14.3177 46.0967 13.8137 46.4714ZM8.92086 53.5452C7.93154 53.891 7.68009 54.7748 8.34385 55.5721C9.10911 56.4915 10.8195 56.0002 10.8195 54.8608C10.8195 53.8622 9.87878 53.2104 8.92086 53.5452ZM14.1517 53.5914C13.229 53.9734 12.9971 55.0303 13.692 55.687C14.0708 56.0449 14.3303 56.0489 37.0558 56.0489C59.7812 56.0489 60.0407 56.0449 60.4195 55.687C60.9035 55.2297 60.9111 54.4062 60.4366 53.8523L60.0704 53.4251L37.408 53.3854C18.6643 53.3525 14.6427 53.3881 14.1517 53.5914ZM8.41701 61.1981C8.15848 61.4423 7.94686 61.8531 7.94686 62.111C7.94686 62.7143 8.74468 63.4682 9.38316 63.4682C10.0071 63.4682 10.8195 62.719 10.8195 62.1435C10.8195 60.9239 9.328 60.3371 8.41701 61.1981ZM13.7254 61.1725C13.1363 61.7652 13.1754 62.6187 13.8137 63.093C14.3177 63.4678 14.3428 63.4682 37.0558 63.4682C59.7688 63.4682 59.7939 63.4678 60.2979 63.093C60.9575 62.6028 60.9858 61.7035 60.3594 61.1472L59.9161 60.7538H37.029H14.1419L13.7254 61.1725ZM8.80864 68.1967C7.87332 68.6908 7.69867 69.4546 8.34385 70.2296C9.11888 71.1606 10.8195 70.5928 10.8195 69.4028C10.8195 68.4669 9.63844 67.7583 8.80864 68.1967ZM14.1354 68.1732C13.2811 68.5007 13.0319 69.7208 13.692 70.3445C14.0708 70.7024 14.3303 70.7064 37.0558 70.7064C59.7812 70.7064 60.0407 70.7024 60.4195 70.3445C60.9356 69.8568 60.9255 68.8771 60.3994 68.4273C60.0084 68.0929 59.3222 68.0815 37.2751 68.0476C24.4101 68.0279 14.3723 68.0824 14.1354 68.1732ZM8.34385 75.8881C7.60273 76.7783 8.03438 77.8372 9.22689 78.0549C10.5061 78.2883 11.3384 76.659 10.3763 75.8047C9.74912 75.2481 8.84579 75.285 8.34385 75.8881ZM13.7254 75.83C13.1731 76.3858 13.1947 77.1291 13.7792 77.6814L14.2491 78.1257H37.0213C59.7692 78.1257 59.7939 78.1253 60.2979 77.7505C60.9303 77.2806 60.9898 76.3121 60.4195 75.7732C60.0407 75.4153 59.7812 75.4113 37.0891 75.4113H14.1419L13.7254 75.83ZM8.77321 82.8318C7.43554 83.3412 7.90703 85.3639 9.36362 85.3639C10.6586 85.3639 11.2676 83.9613 10.3493 83.0938C9.85771 82.6291 9.47336 82.5653 8.77321 82.8318ZM13.7792 83.0938C13.1759 83.6637 13.1646 84.4488 13.7522 84.9705L14.1955 85.3639H37.1159C59.7812 85.3639 60.0407 85.36 60.4195 85.002C60.9898 84.4631 60.9303 83.4946 60.2979 83.0247C59.7939 82.6499 59.7692 82.6496 37.0213 82.6496H14.2491L13.7792 83.0938Z" fill="black"/>
</svg>
